<svg version="1.1" height="30px" class="bs-logo" xmlns="http://www.w3.org/2000/svg" xmlns:xlink="http://www.w3.org/1999/xlink" x="0px" y="0px" xml:space="preserve">
    <g>
        <path class="st0" d="M3.3,1l14.6,0.5c2.7,0.1,4.3,1.1,3.9,3.8l-0.9,4.9c-0.1,0.6-0.2,1.1-0.4,1.6c-0.6,2-7.6-7.1-9.6-6.5L8.8,18.4
l-3.6,1.1c-2.2,0.6-3-1-3.2-2.4L0.1,4.8C-0.3,2.1,0.6,0.9,3.3,1z"></path>
        <path class="st0" d="M26.2,17.5c-4.5-4.7-9-9.1-13.5-13.2l0,0c-0.2-0.2-0.5-0.3-0.8-0.4c-0.7-0.1-1.5,0.3-2,1.2
C8.8,7.9,8.8,20,8.7,23.8c0,0.6-0.1,1.1,0,1.6c0.6,0,1.8,0.2,2.1,0l3.5-4.1c0.6,1.7,2.1,5.7,3.1,8.4c0.2,0.7,1,1,1.6,0.8
c0.8-0.8,5.2-1.9,5.4-1.9c-1.2-2.6-3.7-6.7-4.7-9.4l5.4,0.4c0.3,0,0.6-0.5,0.9-1C26.4,18.3,26.5,17.9,26.2,17.5z M23.9,18.3
c-1-0.1-3.2-0.3-5.5-0.5h-0.6l0.2,0.6l4.9,9.6c-1.7,0.3-3.1,0.8-4.1,1.6c0-0.1-0.1-0.2-0.1-0.3c-0.1-0.2-0.2-0.3-0.2-0.5
c-0.1-0.2-0.2-0.4-0.3-0.6c0-0.1-0.1-0.2-0.1-0.2c-0.8-2.1-2.1-5.5-2.9-7.3c-0.3-0.6-0.7-0.8-1-0.8c-0.1,0-0.2,0.1-0.3,0.2
c-0.9,1.1-2.2,3.4-2.5,4L10,23.7c-0.2-5.6,0.4-10.4,1.2-16.3c0.2-1.4,1.2-1,2.2-0.7c2.5,3.3,10.5,10.2,10.8,11.1
C24.2,17.9,24.3,18.3,23.9,18.3z"></path>
        <g>
            <path class="st0" d="M34.2,2c0-1.2,0.9-2.2,2.1-2.2s2.1,1,2.1,2.2v5c0.8-0.6,1.7-1.2,3.5-1.2c3.7,0,6.5,3.4,6.5,7.6
c0,4.3-2.8,7.6-6.5,7.6c-1.6,0-2.7-0.5-3.6-1.6c-0.3,0.6-0.9,1.4-2,1.4c-1.2,0-2.1-1-2.1-2.2V2L34.2,2z M38.5,13.5
c0,2,1,3.6,2.9,3.6s2.9-1.6,2.9-3.6s-1-3.6-2.9-3.6S38.5,11.5,38.5,13.5z"></path>
            <path class="st0" d="M63.6,18.6c0,1.2-0.9,2.2-2.1,2.2c-1,0-1.7-0.7-2-1.4c-0.9,1.2-2,1.6-3.6,1.6c-3.7,0-6.5-3.4-6.5-7.6
c0-4.3,2.8-7.6,6.5-7.6c1.6,0,2.7,0.5,3.6,1.6c0.3-0.7,0.9-1.4,2-1.4c1.2,0,2.1,1,2.1,2.2V18.6z M53.5,13.5c0,2,1,3.6,2.9,3.6
s2.9-1.6,2.9-3.6s-1-3.6-2.9-3.6C54.6,9.9,53.5,11.5,53.5,13.5z"></path>
            <path class="st0" d="M65.4,8.3c0-1.2,0.9-2.2,2.1-2.2c1.1,0,1.8,0.7,2.1,1.4c0.7-1.1,1.8-1.6,3.6-1.6c2.9,0,5.3,1.5,5.3,5v7.8
c0,1.2-0.9,2.2-2.1,2.2s-2.1-1-2.1-2.2V12c0-1.5-0.9-2.5-2.3-2.5c-1.5,0-2.3,1.1-2.3,2.5v6.7c0,1.2-0.9,2.2-2.1,2.2
s-2.1-1-2.1-2.2L65.4,8.3L65.4,8.3z"></path>
            <path class="st0" d="M80.5,8.3c0-1.2,0.9-2.2,2.1-2.2c1.1,0,1.8,0.7,2.1,1.4c0.7-1.1,1.8-1.6,3.6-1.6c2.9,0,5.3,1.5,5.3,5v7.8
c0,1.2-0.9,2.2-2.1,2.2s-2.1-1-2.1-2.2V12c0-1.5-0.9-2.5-2.3-2.5c-1.5,0-2.3,1.1-2.3,2.5v6.7c0,1.2-0.9,2.2-2.1,2.2
s-2.1-1-2.1-2.2L80.5,8.3L80.5,8.3z"></path>
            <path class="st0" d="M99.5,14.9c0,0.9,0.7,2.4,3.4,2.4c2.1,0,3.4-1.3,4.3-1.3s1.8,0.7,1.8,1.8c0,2.1-3.4,3.4-6.6,3.4
c-4.6,0-7.4-3.4-7.4-7.6c0-4.1,3.1-7.6,7.4-7.6c4.2,0,6.9,3.5,6.9,7.2c0,1.5-0.7,1.8-2.1,1.8L99.5,14.9L99.5,14.9z M105,12
c0-0.9-1.1-2.5-2.7-2.5S99.5,11,99.5,12H105z"></path>
            <path class="st0" d="M110.6,8.3c0-1.2,0.9-2.2,2.1-2.2c1.1,0,1.8,0.7,2.1,1.4c0.7-0.8,1.7-1.6,2.9-1.6c1.1,0,2.2,0.9,2.2,2.2
c0,1.5-1.1,1.8-2.7,2.3c-1.8,0.5-2.4,1-2.4,3.2v5.1c0,1.2-0.9,2.2-2.1,2.2s-2.1-1-2.1-2.2V8.3L110.6,8.3z"></path>
            <path class="st0" d="M121.4,16.2c1.3,0,2.2,1.2,4.1,1.2c0.9,0,1.2-0.4,1.2-0.8c0-0.9-0.9-0.9-3.3-1.9c-2.2-0.9-3.3-1.7-3.3-4
c0-2.4,2.1-4.8,5.4-4.8c1.7,0,4.9,0.8,4.9,3c0,1.1-0.8,1.8-1.8,1.8c-0.8,0-2.1-1.1-3.4-1.1c-0.6,0-1.1,0.3-1.1,0.9
c0,1.7,6.6,1.3,6.6,5.9c0,3-2.5,4.7-5.4,4.7c-2.7,0-5.6-1.1-5.6-2.9C119.7,17,120.5,16.2,121.4,16.2z"></path>
            <path class="st0" d="M132,8.3c0-1.2,0.9-2.2,2.1-2.2c1.1,0,1.8,0.7,2.1,1.4c0.7-1.1,1.8-1.6,3.6-1.6c2.9,0,5.3,1.5,5.3,5v7.8
c0,1.2-0.9,2.2-2.1,2.2s-2.1-1-2.1-2.2V12c0-1.5-0.9-2.5-2.3-2.5s-2.3,1.1-2.3,2.5v6.7c0,1.2-0.9,2.2-2.1,2.2s-2.1-1-2.1-2.2
L132,8.3L132,8.3z"></path>
            <path class="st0" d="M160.7,18.6c0,1.2-0.9,2.2-2.1,2.2c-1,0-1.7-0.7-2-1.4c-0.9,1.2-2,1.6-3.6,1.6c-3.7,0-6.5-3.4-6.5-7.6
c0-4.3,2.8-7.6,6.5-7.6c1.6,0,2.7,0.5,3.6,1.6c0.3-0.7,0.9-1.4,2-1.4c1.2,0,2.1,1,2.1,2.2V18.6z M150.7,13.5c0,2,1,3.6,2.9,3.6
s2.9-1.6,2.9-3.6s-1-3.6-2.9-3.6S150.7,11.5,150.7,13.5z"></path>
            <path class="st0" d="M169.2,5.8c1.9,0,5,0.5,5,2.8c0,1.1-0.8,2-1.7,2c-1.1,0-1.4-0.7-3-0.7c-2.1,0-3.1,1.6-3.1,3.6s1,3.6,2.9,3.6
c1.8,0,2.7-0.7,3.3-0.7c1,0,1.7,1,1.7,1.9c0,2.1-3.3,2.9-5,2.9c-4.3,0-7.1-3.4-7.1-7.6C162,9.2,164.9,5.8,169.2,5.8z"></path>
            <path class="st0" d="M175.4,2c0-1.2,0.9-2.2,2.1-2.2s2.1,1,2.1,2.2v9l3.4-3.4c0.7-0.7,1.4-1.5,2.4-1.5c1.2,0,2.1,0.9,2.1,2
c0,0.8-0.5,1.2-1.5,2.2l-2.3,2.2l3.6,4.5c0.4,0.5,1,1.2,1,1.9c0,0.8-0.6,2-2.1,2c-1,0-1.4-0.3-2.3-1.4l-4.2-5.5h-0.1v4.8
c0,1.2-0.9,2.2-2.1,2.2s-2.1-1-2.1-2.2L175.4,2L175.4,2z"></path>
        </g>
    </g>
</svg>
